<svg version="1.1" xmlns="http://www.w3.org/2000/svg" viewBox="0 0 113.27734375 103.07421875" width="226.5546875" height="206.1484375">
  <!-- svg-source:excalidraw -->
  
  <defs>
    <style>
      @font-face {
        font-family: "Virgil";
        src: url("https://excalidraw.com/Virgil.woff2");
      }
      @font-face {
        font-family: "Cascadia";
        src: url("https://excalidraw.com/Cascadia.woff2");
      }
    </style>
  </defs>
  <g stroke-linecap="round" transform="translate(10 10) rotate(0 46.638671875 41.537109375)"><path d="M-0.2 42.23 C-0.2 42.23, -0.2 42.23, -0.2 42.23 M-0.2 42.23 C-0.2 42.23, -0.2 42.23, -0.2 42.23 M2.21 42.97 C8.72 39.17, 13.97 30.96, 23.28 19.54 M3.03 45.8 C7.08 39.06, 11.69 35.06, 24.06 21.03 M5.95 48.61 C21.92 30.03, 34.49 14.2, 46.53 0.29 M6.76 47.77 C19.65 31.61, 33.18 17.24, 46.76 -0.02 M8.09 48.31 C23.42 32.81, 38.11 15.47, 49.01 1.72 M8.15 49.34 C22.96 35.24, 35.6 19.74, 51.1 3.2 M10.16 53.41 C23.45 39.56, 36.48 26.48, 53.57 3.37 M11.77 51.74 C24.35 39.35, 35.61 27.4, 53.51 4.97 M16.55 57.22 C28.85 41.26, 41.55 26.29, 55.04 7.69 M14.15 56.06 C30.12 36.47, 47.59 17, 55.82 7.52 M18.49 58.04 C27.96 43.67, 43.16 31.63, 57.87 10.5 M18.29 57.26 C32.42 41.83, 48.55 23.8, 58.48 11.43 M19.95 60.3 C37.1 42.67, 53.33 26.36, 62.62 13 M21.23 61.09 C33.59 46.66, 45.63 32.03, 61.66 14.53 M25.62 61.55 C35.8 49.67, 51.75 32.64, 64.08 15.34 M24.52 64.09 C33.84 50.27, 46.47 37.05, 64.94 15.44 M26.78 65.58 C36.73 55.41, 45.15 45.31, 65.7 20.73 M27.81 66.56 C39.01 51.97, 50.85 39.75, 68.38 18.48 M29.32 69.42 C42.27 51.62, 59.75 37.88, 68.98 21.19 M29.34 68.53 C39.32 58.83, 48.14 47.83, 71.43 21.4 M31.6 72.48 C45.93 57.73, 58.15 39.62, 73.36 24.65 M33.5 70.69 C45.8 56.51, 58.83 42.3, 73.46 23.4 M36.45 75.53 C43.57 64.63, 55.49 55.29, 78.12 28 M35.33 74.43 C45.07 61.87, 55.6 52.1, 77.31 26.01 M37.07 77.84 C54.68 60.74, 68.7 40.18, 78.42 28.16 M38.1 76.74 C52.39 60.76, 66.08 46.18, 79.77 29.13 M40.97 80.16 C51.69 67.24, 61.17 55.59, 83.13 31.14 M41.79 78.2 C57.79 61.26, 73.05 41.99, 83.16 31.98 M43.94 81.89 C57.84 66.86, 74.06 47.6, 86.82 35.08 M44.65 81.99 C53.12 72.02, 62.67 61.65, 85.85 35.06 M49.93 84.01 C59.01 71.64, 68.91 60.57, 87.71 39.37 M47.72 83.79 C61.5 69.12, 75.43 52.47, 89.78 37.12 M73.39 62.88 C77.7 54.85, 83.92 45.74, 91.58 39.65 M70.7 63.4 C75.11 58.12, 81.04 54.11, 90.98 39.13 M47.02 83.09 C47.02 83.09, 47.02 83.09, 47.02 83.09 M47.02 83.09 C47.02 83.09, 47.02 83.09, 47.02 83.09 M47.85 80.04 C31.64 63.96, 15.6 50.41, 3.82 38.57 M50.14 79.53 C33.54 66.29, 19.51 52.62, 3.12 38.9 M51.68 77.15 C35.05 60.61, 16.62 45.43, 3.62 37.71 M53.29 76.92 C41.13 67.2, 30.02 57.97, 6.06 35.69 M55.1 75.69 C40.04 62.2, 24.61 47.53, 10.68 34.07 M56.36 75.7 C39.36 61.95, 24.15 47.9, 7.88 33.57 M57.17 74.23 C47.25 62.72, 37.15 53.31, 12.19 31.3 M59.56 71.46 C43.15 57.72, 26.83 44.52, 10.64 31.84 M62.96 68.4 C43.88 55.82, 28.5 40.5, 15.52 28.31 M61.87 70.08 C48.13 56.32, 31.87 43.18, 15.68 29.46 M66.23 65.35 C47.78 53.36, 33.23 39.68, 16.17 27.12 M64.31 67.08 C50.95 53.63, 36.2 41.43, 17.16 24.75 M69.38 66.09 C50.05 48.06, 31.17 35.06, 19.72 25.14 M67.46 63.86 C50.99 50.51, 36 34.86, 20.6 22.66 M69.38 63.24 C57.78 48.12, 44.47 36.12, 21.75 18.99 M72.03 62.44 C51.97 45.69, 34.91 29.41, 24.39 20.44 M73.7 59.43 C62.82 47.69, 49.31 35.1, 25.79 16.82 M74.36 59.63 C63.08 49.76, 51.65 38.38, 26.39 18.86 M78.25 57.03 C63.05 45.49, 49.89 34.33, 31.22 14.11 M76.95 55.79 C61.39 42.78, 46.93 30.32, 29.36 13.96 M79.33 52.52 C66.13 41.17, 50.69 25.88, 31.28 14 M80.01 53.02 C62.23 38.11, 43.38 21.51, 33.56 12.26 M83.53 50.26 C64.76 36.67, 45.42 17.13, 36.95 11.1 M83.98 49.89 C66.2 36.87, 51.13 22.7, 36.25 10.44 M87.75 48.83 C75.98 38.36, 65.32 28.98, 38.9 7.76 M87.06 47.68 C73.27 35.98, 58.82 23.89, 38.27 6.62 M89.03 46.86 C77.81 37.55, 68.52 26.91, 43.42 5.96 M89.74 45.07 C70.92 28.87, 53.87 14.75, 41.48 4.03 M92.58 41.27 C82.51 32.48, 71.25 24.73, 46.39 3.56 M92.35 42.35 C80.92 33.28, 66.72 21.9, 45.41 2.25" stroke="#fa5252" stroke-width="0.5" fill="none"></path><path d="M47.02 0.79 C62.12 15.28, 78.89 27.76, 93.01 42.41 M47.88 -1 C62.91 14.04, 79.12 28.08, 93.31 42.84 M91.65 43.19 C83.7 49.39, 72.44 59.79, 46.96 81.69 M94.17 42.7 C75.96 56.9, 57.88 73.88, 46.54 82.94 M47.92 84.3 C36.45 72.75, 24.48 66.87, 0.16 41.1 M47.34 82.25 C28.98 66.6, 11.69 52.8, 0.92 42.55 M-0.16 40.37 C11.64 30.58, 23.32 22.36, 47.3 1.11 M-0.99 42.77 C16.51 28.44, 33.67 12.18, 46.57 -0.9" stroke="#e67700" stroke-width="1" fill="none"></path></g><g stroke-linecap="round" transform="translate(34.220703125 30.177734375) rotate(0 22.1591796875 21.5595703125)"><path d="M27.34 1.06 C31.71 1.7, 36.45 4.83, 39.27 8.18 C42.09 11.52, 44.25 16.54, 44.23 21.12 C44.22 25.7, 42.27 31.94, 39.2 35.65 C36.12 39.36, 30.45 42.62, 25.78 43.37 C21.11 44.13, 15.42 42.72, 11.17 40.2 C6.92 37.68, 2.04 32.5, 0.29 28.26 C-1.47 24.01, -1.2 19.15, 0.64 14.73 C2.49 10.3, 6.38 3.95, 11.35 1.7 C16.31 -0.56, 26.8 0.85, 30.46 1.21 C34.12 1.58, 33.51 3.59, 33.3 3.9 M24.87 1.45 C29.64 1.59, 34.75 3.52, 38.02 6.58 C41.29 9.63, 44.24 15.27, 44.52 19.75 C44.8 24.24, 42.15 29.61, 39.68 33.47 C37.22 37.33, 34.08 41.79, 29.73 42.9 C25.38 44.02, 17.99 42.33, 13.59 40.16 C9.2 37.98, 5.53 33.71, 3.35 29.85 C1.17 26, -0.22 21.41, 0.51 17.03 C1.25 12.65, 3.99 6.38, 7.77 3.55 C11.55 0.72, 20.44 0.42, 23.21 0.05 C25.98 -0.32, 24.27 0.97, 24.39 1.34" stroke="none" stroke-width="0" fill="#be4bdb"></path><path d="M22.75 -0.25 C27.09 -0.48, 32.88 1.6, 36.44 4.68 C40.01 7.76, 43.34 13.34, 44.13 18.22 C44.91 23.1, 43.69 30.13, 41.14 33.97 C38.58 37.82, 33.35 39.98, 28.8 41.29 C24.25 42.6, 18.17 43.39, 13.84 41.83 C9.51 40.28, 4.96 36.27, 2.82 31.97 C0.67 27.66, -0.03 20.59, 0.95 16.03 C1.94 11.47, 4.82 7.15, 8.73 4.6 C12.65 2.04, 21.85 1.42, 24.43 0.72 C27.02 0.01, 24.38 0.17, 24.24 0.36 M24.6 1.47 C29.13 1.84, 35.18 3.53, 38.32 6.71 C41.46 9.88, 43.04 16.1, 43.44 20.55 C43.85 24.99, 43.35 29.56, 40.75 33.38 C38.16 37.2, 32.33 41.99, 27.88 43.44 C23.43 44.9, 18.46 44.45, 14.06 42.09 C9.65 39.72, 3.71 33.55, 1.47 29.25 C-0.78 24.96, -0.66 20.45, 0.57 16.31 C1.81 12.17, 5.1 7.23, 8.89 4.42 C12.67 1.62, 20.72 0.34, 23.29 -0.53 C25.86 -1.41, 23.95 -1.12, 24.32 -0.84" stroke="#000000" stroke-width="1" fill="none"></path></g></svg>